<svg height="512pt" viewBox="-44 0 512 512" width="512pt" xmlns="http://www.w3.org/2000/svg"><path d="m124.878906 128v-62.4375h-16.652344c-11.492187 0-20.8125 9.316406-20.8125 20.8125v41.625zm0 0" fill="#ddf5ff"/><path d="m424.585938 424.386719v77.207031c0 5.746094-4.660157 10.40625-10.40625 10.40625h-403.773438c-5.746094 0-10.40625-4.660156-10.40625-10.40625v-77.207031c0-37.398438 24.933594-70.210938 60.972656-80.210938l88.882813-24.695312h124.875l88.882812 24.695312c36.039063 10 60.972657 42.8125 60.972657 80.210938zm0 0" fill="#c9d2e3"/><path d="m232.066406 394.40625 12.488282 117.59375h-64.523438l12.488281-117.59375zm0 0" fill="#ff6969"/><path d="m232.066406 394.40625h-15.613281l12.488281 117.59375h15.613282zm0 0" fill="#ea4747"/><path d="m363.617188 344.167969-6.734376-1.867188c18.089844 15.457031 29.199219 38.351563 29.199219 63.300781v106.398438h28.097657c5.746093 0 10.40625-4.660156 10.40625-10.40625v-77.210938c0-37.394531-24.9375-70.203124-60.96875-80.214843zm0 0" fill="#adbbd5"/><path d="m249.757812 293.464844-37.464843 37.460937-37.464844-37.460937v-59.320313h74.929687zm0 0" fill="#f9b3a7"/><path d="m299.707031 128v-62.4375h16.652344c11.492187 0 20.8125 9.316406 20.8125 20.8125v41.625zm0 0" fill="#c1e9f4"/><path d="m212.292969 0c-54.023438 0-97.820313 43.796875-97.820313 97.820312v22.894532h-15.609375c-11.496093 0-20.8125 9.316406-20.8125 20.8125v14.570312c0 11.496094 9.316407 20.8125 20.8125 20.8125h16.855469c7.472656 46.605469 47.863281 82.210938 96.574219 82.210938 54.023437 0 97.820312-43.796875 97.820312-97.820313v-63.480469c0-54.023437-43.796875-97.820312-97.820312-97.820312zm0 0" fill="#feccc1"/><path d="m325.722656 120.714844h-15.609375v-22.894532c0-54.023437-43.796875-97.820312-97.820312-97.820312-5.132813 0-10.171875.398438-15.089844 1.160156 46.859375 7.253906 82.734375 47.769532 82.734375 96.660156v63.480469c0 48.894531-35.875 89.40625-82.734375 96.664063 4.917969.761718 9.957031 1.15625 15.089844 1.15625 48.710937 0 89.101562-35.605469 96.574219-82.210938h16.855468c11.496094 0 20.8125-9.316406 20.8125-20.8125v-14.570312c0-11.492188-9.316406-20.8125-20.8125-20.8125zm0 0" fill="#f9b3a7"/><path d="m212.292969 394.40625h19.773437l20.292969-23.414062-40.066406-40.066407-40.066407 40.066407 20.292969 23.414062zm0 0" fill="#ff6969"/><path d="m212.292969 330.925781-12.226563 12.230469 20.984375 20.984375c3.859375 3.863281 4.082031 10.046875.507813 14.175781l-13.949219 16.089844h24.457031l20.292969-23.414062zm0 0" fill="#ea4747"/><g fill="#adbbd5"><path d="m172.226562 370.992188 40.066407-40.066407-37.464844-37.460937-24.972656 26.015625zm0 0"/><path d="m252.359375 370.992188-40.066406-40.066407 37.464843-37.460937 24.972657 26.015625zm0 0"/><path d="m353.300781 479.738281v32.261719h-15.609375v-32.261719c0-4.304687 3.496094-7.804687 7.804688-7.804687s7.804687 3.5 7.804687 7.804687zm0 0"/><path d="m71.285156 512v-32.261719c0-4.304687 3.496094-7.804687 7.804688-7.804687s7.804687 3.5 7.804687 7.804687v32.261719zm0 0"/></g><path d="m230.015625 111.160156v19.859375c-.988281-.449219-1.894531-1.03125-2.664063-1.730469-1.882812-1.675781-8.222656-5.972656-15.058593-5.972656-8.191407 0-14.953125 5.871094-15.015625 5.933594-.78125.71875-1.699219 1.308594-2.707032 1.757812v-19.84375c4.859376-1.945312 10.855469-3.457031 17.722657-3.457031 6.867187 0 12.863281 1.507813 17.722656 3.453125zm0 0" fill="#636363"/><path d="m198.246094 124.359375c0 15.515625-12.582032 28.097656-28.097656 28.097656-15.519532 0-28.097657-12.582031-28.097657-28.097656 0-15.519531 12.578125-28.097656 28.097657-28.097656 15.515624 0 28.097656 12.578125 28.097656 28.097656zm0 0" fill="#ddf5ff"/><path d="m184.03125 99.933594c2.335938 4.097656 3.675781 8.835937 3.675781 13.886718 0 15.519532-12.578125 28.097657-28.097656 28.097657-5.050781 0-9.789063-1.339844-13.886719-3.675781 4.835938 8.488281 13.957032 14.210937 24.425782 14.210937 15.515624 0 28.097656-12.578125 28.097656-28.097656-.003906-10.464844-5.726563-19.585938-14.214844-24.421875zm0 0" fill="#c1e9f4"/><path d="m282.535156 124.359375c0 15.515625-12.578125 28.097656-28.097656 28.097656-15.515625 0-28.097656-12.582031-28.097656-28.097656 0-15.519531 12.582031-28.097656 28.097656-28.097656 15.519531 0 28.097656 12.578125 28.097656 28.097656zm0 0" fill="#ddf5ff"/><path d="m268.324219 99.933594c2.335937 4.097656 3.675781 8.835937 3.675781 13.886718 0 15.519532-12.578125 28.097657-28.097656 28.097657-5.050782 0-9.789063-1.339844-13.886719-3.675781 4.835937 8.488281 13.957031 14.210937 24.425781 14.210937 15.515625 0 28.097656-12.578125 28.097656-28.097656-.003906-10.464844-5.726562-19.585938-14.214843-24.421875zm0 0" fill="#c1e9f4"/></svg>